<svg xmlns="http://www.w3.org/2000/svg" width="240" height="61" fill="none"><path fill="#000" d="M87.937 48.782c.063-.82.044-1.646-.058-2.462a7.762 7.762 0 0 0-.737-2.604 2.572 2.572 0 0 0-.698-.773s0 4.262.02 4.863c.003.449.034.897.093 1.342.015.148.054.293.115.426.083.202.205.382.358.529a.39.39 0 0 0 .53.081c.232-.162.32-.95.377-1.404m.338-1.445c.018 1.852-.289 2.951-.548 3.237-.217.24-.571-.109-.905-.367-.334-.258-.74-.607-.74-.607v-.164s.07.094.094.019a.583.583 0 0 0 .02-.183s-.034-1.554-.058-3.073c-.024-1.573-.038-3.114-.038-3.114a1.248 1.248 0 0 0-.017-.426.548.548 0 0 0-.133-.213v-.181l1.02.852c.24.209.44.464.593.752.198.427.68 1.61.698 3.46m-4.442.138.453.407v-.184a.375.375 0 0 1-.093-.142 1.26 1.26 0 0 1-.057-.365l-.016-5.016 1.568 7.02.055.061-.093-6.92c0-.059.02-.116.055-.161a.073.073 0 0 1 .113 0v-.122l-.49-.407v.162c.03.06.069.115.112.164.083.094.056.343.056.343l.04 4.866-1.396-6.394-.395-.266v.164c0 .034.112.05.17.213.04.255.059.513.055.772v3.134c0 .625.045 2.53.02 2.605-.026.074-.113-.04-.113-.04l-.044.106Zm-.899-4.182-.198-2.116-.229 1.852.427.264Zm.85 3.95v.161l-.53-.468-.017-.182s.069.094.075-.021c.005-.115-.34-3.154-.34-3.154l-.493-.326s-.243 2.178-.263 2.32a.71.71 0 0 0 0 .325c.012.044.031.085.058.121v.124l-.322-.245v-.122s.045.047.075-.06c.03-.106.755-5.881.755-5.881l.132.08.68 6.799a.724.724 0 0 0 .077.364c.034.058.072.113.113.164Zm-3.024-8.203c0 .08.017.226.017.226l-.057 4.984c.007.163.001.326-.018.488-.031.156-.114.062-.114.062v.1l1.302.957-.017-1.647-.095-.04c.008.339-.005.678-.038 1.016-.051.28-.198.121-.198.121a1.337 1.337 0 0 1-.395-.345 1.74 1.74 0 0 1-.132-.652s.012-4.901.037-5.085c.026-.183.115-.062.115-.062l.018-.142-.49-.284-.02.203c.02.007.038.02.051.038a.13.13 0 0 1 .026.062m-1.508-.556s-.03-.284.037-.286c.16.079.311.174.453.286 0 0 0 5.202-.02 5.472-.02.27-.132.103-.132.103s-.012.115-.02.142c-.008.028.593.427.593.427v-.165s-.172-.123-.172-.213v-.226l.038-5.35c.169.069.328.164.472.283a.346.346 0 0 1 0 .266l.075.06.115-.774-.077-.06s.027 0 0 .122c-.028.121-.076.102-.076.102s-1.061-.598-1.243-.754c-.182-.156-.114-.305-.114-.305l-.115-.062.077.898.109.034Zm-.473 4.008c.164-.496.231-2.029-.075-3.48s-.78-1.77-.87-1.77c-.088 0-.197.04-.395.57-.198.531-.12 1.729.038 3.052.158 1.324.541 2.131.773 2.197.23.066.365-.074.53-.569Zm-.472.853c-.712.09-1.038-2.298-1.095-2.888a10.8 10.8 0 0 1-.038-1.385c0-.84.251-1.89.623-2.076.371-.185.856.469 1.057 1.528.202 1.06.499 4.688-.547 4.82Zm-3.074-4.793c.08.874.264 1.734.55 2.557.085.238.212.455.375.64.134.153.295.278.473.366.12.052.248.08.377.081l.13-.548-.075-.04s0 .426-.452.345c-.251-.047-.524-.578-.716-1.242a14.716 14.716 0 0 1-.34-1.75c-.245-1.505-.322-2.836.15-3.356.29-.32.675.343.888.892.082.21.139.43.17.655l.095.019-.075-.793s-.625-1.242-1.077-1.038c-.74.33-.463 3.316-.473 3.214m-.905 1.264c.16.179.364.426.53.405.357-.047.326-1.322.187-2.238-.138-.916-.628-1.6-.87-2.259-.24-.658-.337-1.56-.055-1.75.283-.19.623 1.222.623 1.222l.095.08-.152-.956a4.091 4.091 0 0 0-.49-.57c-.17-.127-.396.1-.396.57.002.542.065 1.081.188 1.607.145.587.367 1.149.66 1.668a3.3 3.3 0 0 1 .378 1.69c0 .4-.062.671-.226.693-.164.021-.423-.495-.547-.898a9.695 9.695 0 0 1-.198-1.38l-.075-.062.038 1.811.32.367m19.924-21.95.091.573h.441l-.047-.548-.091-.375-.303-.324-.395-.35-.396-.223-1.294-.624.022 1.023 1.065.1.907.748Zm-2.965-2.238-1.332-.07.022 1.769 1.31-.441V15.62ZM78.803 45.057l-1.817 3.41-1.097-.02 1.815-3.329-.036-1.106-.241-.2v1.306l-1.765 3.316v.29h6.151v-.298l-1.421-2.327-1.597-1.066m10.648-16.859.664.891.225-.143-1.006-1.302.117.554Zm4.884-14.572c.038.025.07.058.094.097.024.04.04.084.047.131a.71.71 0 0 1-.097.49c-.166.232-.309.213-.309.213a.344.344 0 0 1-.197-.061l-.067.213c.07.045.131.107.177.18a.627.627 0 0 1 .09.246c.01.2-.043.4-.153.562-.176.265-.352.118-.352.118a.366.366 0 0 1-.109-.146.397.397 0 0 1-.03-.185.384.384 0 0 1 .084-.232c.105-.151.041-.247.041-.247-.079-.107-.185 0-.185 0a.598.598 0 0 0-.137.298.818.818 0 0 0 .143.584c.085.12.206.204.341.239a.49.49 0 0 0 .447-.122.948.948 0 0 0 .23-.57.971.971 0 0 0-.224-.627c.09.026.186.02.273-.016a.452.452 0 0 0 .213-.185.88.88 0 0 0 .129-.46 1.093 1.093 0 0 0-.107-.411.633.633 0 0 0-.324-.286.476.476 0 0 0-.285-.013.435.435 0 0 0-.149.133.477.477 0 0 0-.08.19c-.053.255.08.304.08.304a.136.136 0 0 0 .165-.033.455.455 0 0 0 .073-.268c0-.177.109-.149.109-.149.023.002.046.01.065.024m-1.706.098.08.183a.956.956 0 0 0 .464-.339.627.627 0 0 0 .038-.654.659.659 0 0 0-.199-.198.606.606 0 0 0-.256-.092.436.436 0 0 0-.284.063.49.49 0 0 0-.194.231 1.03 1.03 0 0 0-.028.733s.124.41.211.605c.079.189.104.398.072.601 0 0-.054.335-.313.3a.341.341 0 0 1-.186-.1.386.386 0 0 1-.1-.197.788.788 0 0 1 .158-.54.85.85 0 0 1 .324-.26l-.067-.213-.154.07a.985.985 0 0 0-.447.508.724.724 0 0 0 .083.675.552.552 0 0 0 .182.183c.073.044.155.07.239.073.084.011.17.002.25-.027a.556.556 0 0 0 .214-.143.799.799 0 0 0 .16-.28.844.844 0 0 0 .038-.326 1.729 1.729 0 0 0-.17-.707l-.103-.24a1.451 1.451 0 0 1-.138-.534s.012-.292.24-.292c.047 0 .094.013.137.036.043.024.08.057.11.099a.46.46 0 0 1 .037.355.554.554 0 0 1-.082.199c-.04.06-.09.11-.148.147a3.123 3.123 0 0 1-.154.08m-2.07-1.988-.04 1.03.124.072.053-.541c.195.152.428.238.668.247l-.356.497c-.175.24-.31.513-.395.805a1.507 1.507 0 0 0-.035.67c.043.276.158.268.158.268.152.038.164-.262.164-.262.004-.22.028-.44.07-.654.142-.6.413-1.155.791-1.62l-.288-.122a2.374 2.374 0 0 1-.921-.39m-1.704.113a.73.73 0 0 0 .318-.19v1.689s.02.537-.093.552c0 0-.047.046-.338-.05l.014.15s.546.172 1.137.394v-.164c-.317-.092-.36-.115-.376-.377v-.514c0-.484.018-1.279.04-2.131l-.14-.043c-.172.178-.36.336-.562.471l-.097.06.097.153Zm-.79.87c-.054 0-.094.102-.088.213.006.11.054.213.107.213s.095-.1.089-.213c-.006-.113-.051-.213-.109-.213Zm-1.027-1.564v.119l.078.045.077.045c.06.046.049.115.057.172.008.058 0 .092 0 .092l.014.426v.529c.002.095.025.19.067.274a.175.175 0 0 0 .053.064c.022.023.048.04.077.051.029.01.06.013.09.009a.258.258 0 0 0 .094-.034.244.244 0 0 0 .08-.101.265.265 0 0 0 .02-.131v-.233l-.048-.025-.048-.024v.278c0 .114-.075.12-.107.108a.097.097 0 0 1-.034-.027.105.105 0 0 1-.019-.041v-.124c0-.1 0-.17-.01-.234s0-.134 0-.228v-.654l.123.063.112.052v-.154l-.122-.055-.12-.06-.013-.3v-.262H87.343c.002.082-.006.164-.022.245a.254.254 0 0 1-.03.091.126.126 0 0 1-.062.059.114.114 0 0 1-.082.003.313.313 0 0 1-.093-.034m-.575.062a.247.247 0 0 1 .02-.192s.079-.113.197.023c.098.127.16.28.182.444l.077.042-.04-.581a.097.097 0 0 1-.04.038.089.089 0 0 1-.054.008 1.526 1.526 0 0 0-.12-.104.276.276 0 0 0-.255-.045.282.282 0 0 0-.126.111.315.315 0 0 0-.047.168.819.819 0 0 0 .045.306.773.773 0 0 0 .153.261l.198.243a.716.716 0 0 1 .136.369s.02.158-.093.151c0 0-.11 0-.245-.183a.87.87 0 0 1-.12-.341v-.056l-.084-.036.038.601c.053-.074.198.043.198.043.07.068.157.114.25.134.033.01.068.009.1-.001a.184.184 0 0 0 .085-.056.464.464 0 0 0 .09-.295.787.787 0 0 0-.11-.426 1.316 1.316 0 0 0-.184-.26 1.115 1.115 0 0 1-.176-.213.438.438 0 0 1-.077-.153m-.421-1.01a9.991 9.991 0 0 1-1.202-.676l.01.175c.052.03.102.066.148.106a.31.31 0 0 1 .093.124c.02.05.029.104.024.158l.016 1.717s.031.28-.25.064l-.047-.04v.136c.402.287.837.516 1.293.684l-.043-.886-.103-.054a1.58 1.58 0 0 1 0 .382s-.018.33-.245.213c-.228-.117-.273-.13-.317-.192l-.016-1.065c.073.034.143.074.21.119.031.02.058.048.077.081a.76.76 0 0 1 .085.381l.085.039-.035-.963-.076-.035v.194s0 .213-.09.17l-.251-.133v-.878l.258.132c.265.136.261.279.261.279.04.179.058.305.058.305l.09.05-.033-.587ZM73.827 39.4a11.849 11.849 0 0 1-.555-3.112s-.085-2.246-.065-2.823l.043-2.692.107.345.164.41s-.247-.54-.265-2.212c0 0-.016-2.132.593-3.647.18-.45.393-.885.635-1.3.318-.51.693-.976 1.117-1.387.308-.314.65-.587 1.02-.812l.292-.426a6.641 6.641 0 0 0-1.245.886 9.068 9.068 0 0 0-1.064 1.196c-.225.332-.292.443-.385.599-.156.262-.198.379-.37.714a8.672 8.672 0 0 0-.721 2.66c-.07.778-.098 1.56-.085 2.343 0 0-.02.497-.038 3.167 0 0 .06 3.197.174 3.945 0 0 .02.194.067.526.11.878.378 1.724.791 2.49.62 1.197 1.779 2.416 2.716 3.268 0 0 3.441 2.713 4.942 3.862l.86.671c.634.573 1.494 1.245 2.265 2.01 0 0 3.716 3.688 4.437 4.545l-.047-.526s-2.896-3.158-5.025-5.025c0 0-.9-.842-2.807-2.297 0 0-.95-.766-2.032-1.554 0 0-.873-.64-2.028-1.511a12.389 12.389 0 0 1-2.87-3.086 7.474 7.474 0 0 1-.62-1.219m-.273-9.308c.087-.369.197-.627.583-1.317.299-.51.674-.963 1.11-1.34.837-.815 1.404-.66 1.353-.597l-.18-.48c-1.528.5-2.416 2.08-2.416 2.08-.76 1.36-.707 2.28-.707 2.28.043.706.739 1.918.739 1.918.832 1.633 2.734 3.086 2.734 3.086.459.367.939.703 1.437 1.006l.988.537 2.202 1.089a32.856 32.856 0 0 1 2.514 1.387 40.838 40.838 0 0 1 5.207 4.166l-.317 2.656c-.181 1.434-.272 3.444.107 7.386l.346.413-.273-3.015c-.27-2.056.334-7.7.334-7.7-1.976-1.73-4.686-3.714-4.686-3.714-1.41-.953-2.803-1.615-4.483-2.423-1.058-.51-1.686-.863-1.977-1.042a13.942 13.942 0 0 1-2.43-1.918 9.623 9.623 0 0 1-1.383-1.705 9.074 9.074 0 0 1-.628-1.219c-.17-.54-.253-.852-.253-.852.004-.232.03-.463.077-.689M89.718 15.21a16.941 16.941 0 0 1-3.795-1.268c-2.483-1.104-1.977-1.588-2.009-1.603l-.017-2.084-2.416 1.102-1.848.87c1.68 1.389 3.999 2.052 3.999 2.052a27.032 27.032 0 0 0 6.02 1.165c.327.039.825.03.825.03l.638.073-1.397-.337Zm5.303 3.233c.066-.341.148-.678.245-1.01 0 0 .198-.912 1.154-2.174 0 0 .356-.573.176-1.076 0 0-.087-.597-1.13-1.247a18.877 18.877 0 0 0-3.042-1.526s-.935-.403-2.13-.852c0 0-1.875-.659-2.93-1.102-.186-.079-2.647-.953-3.45-2.455l-.152.068.01 5.215.043.07s0 .64 1.685 1.492c.346.177 1.24.458 1.63.618a13.12 13.12 0 0 0 2.787.852c1.258.371 2.487.846 3.677 1.422 0 0 1.216.667 1.032 1.65v.035l.174.107c.064-.231.069-.478.013-.712a1.348 1.348 0 0 0-.332-.616c-.355-.477-1.731-1.052-1.731-1.052a26.608 26.608 0 0 0-2.714-.966c-1.888-.503-2.819-.852-2.819-.852a17.32 17.32 0 0 1-2.014-.853c-1.346-.686-1.261-1.319-1.261-1.319V7.286a3.27 3.27 0 0 0 1.214 1.216s.875.672 2.617 1.296l2.372.887s1.243.454 2.542 1.018c0 0 1.962.75 3.206 1.782 0 0 1.014.616.259 1.788a7.283 7.283 0 0 0-.969 1.805 8.87 8.87 0 0 0-.352 1.453v.026l.178-.047.012-.068Zm-2.639 3.729a4.757 4.757 0 0 0 2.062-2.014h-.214a4.698 4.698 0 0 1-1.715 1.59l-.107.028-.026.396Zm-6.179 1.895a13.175 13.175 0 0 0 3.914-.868l.022-.405c-.326.175-.668.31-1.02.405 0 0-1.666.503-2.649.556l-.62.073.353.239Zm-1.844-.167a.735.735 0 0 0 .318-.015.768.768 0 0 0 .287-.149.797.797 0 0 1 .231-.213.504.504 0 0 1 .447-.051l.207-.232-.207-.203a.65.65 0 0 0-.362.01.691.691 0 0 0-.308.203.722.722 0 0 1-.278.207.672.672 0 0 1-.335.047l-.212.15.212.246Zm-.016.936a.735.735 0 0 0 .32-.015.768.768 0 0 0 .287-.15.757.757 0 0 1 .231-.202.52.52 0 0 1 .447-.053l.21-.23-.21-.202a.65.65 0 0 0-.361.01.693.693 0 0 0-.309.203.742.742 0 0 1-.287.17.703.703 0 0 1-.328.024l-.207.213.207.232Zm.022.918a.735.735 0 0 0 .32-.015.769.769 0 0 0 .287-.15.777.777 0 0 1 .23-.201.518.518 0 0 1 .446-.051l.21-.233-.21-.2a.644.644 0 0 0-.362.01.687.687 0 0 0-.308.203.742.742 0 0 1-.287.17.703.703 0 0 1-.326.024l-.21.213.21.23Zm10.158 22.524-.312.46h-3.578l.306.328h3.39l.15-.345.044-.443Zm-5.835.477h2.388l-.32-.269-1.977-.017-.091.286Zm3.016-12.742.819-1.406v-2.261H90.28l.753 2.146.67 1.521Zm1.613-1.393-1.186 1.918.067.104.072.164 1.383-2.2-.336.014Zm-14.394-2.28h-1.506v2.24l1.581 2.503 1.032.499-.002-2.73c-.462.488-.658.083-.658.083a1.336 1.336 0 0 1-.348-.702 1.394 1.394 0 0 1 .097-.79c.362-.865.727-1.119.727-1.119l-.923.015Zm-2.601 2.254.83 1.315.279.196.21.134-1.019-1.645h-.3Zm3.756-18.159v-.84h-1.255v1.586c.152-.254.366-.458.618-.59.198-.102.415-.156.635-.156m12.15 23.845.053 4.545 1.623 2.896.127-.042.197.042-1.674-2.926-.043-4.988-.283.473Zm-14.67-11.843h-1.434l-.017 6.202h2.12l-.185-.269h-1.684v-1.762l1.138-.013v-.26h-1.119V28.68h1.052v2.042h1.779l-.158-.269h-1.36v-2.024l-.133.008Zm16.038 4.16v1.778H92.25v.264h1.581l.016-6.206h-2.012l.227.26h1.534v3.668h-1.224v.253l1.222-.017Zm-1.31-2.15h-.857l-.395.268h1.495m-2.533-2.043.22.33 1.043-.965V19.91l-1.255.663-.008 8.098Zm2.519-8.584h-.242v10.395l.24.235.002-10.63Zm5.307-1.492v-.275h-4.31l-.71.299 5.02-.024Zm-1.64-.062v1.364l-4.942.015v.305l6.588.068V18.53h-.279v1.362h-1.093v-1.375l-.275.017Zm-2.224-6.327h1.976l-.482.878.156.12.605-.998v-.243h-2.734l.479.243Zm-7.205 3.38h-.475v1.066h-.48v1.664h-.848v.281h2.273l.747-.275h-1.68V16.95h.443l.02-1.364Zm-3.056 1.066-.012-1.079h-.468l.013 1.366h.427v1.381h-1.342l.036.282h1.304l.028 1.082.474-.08-.013-2.665h.836v-.287h-1.283Zm-6.232 1.696-3.98-.021.02 1.981 3.991-.076v-.294l-3.746.017v-1.32l3.724.011-.01-.298Zm-.018-2.75v5.785l.24-.299.019-5.485h-.26Zm5.432-3.635-9.093-.012.01.272 1.898 3.41h15.684l-.893-.269-14.65-.019-1.747-3.128h9.103l-.312-.254Zm6.9 24.25.395.611c.118.094.253.16.396.194.118.048.234.103.347.164a4.439 4.439 0 0 0-1.144-.97m.745 3.327.684.567s-.012-.213-.516-.79a1.931 1.931 0 0 0-.523-.36l-.198-.073c.154.248.342.47.557.656m-.055-.426c.315.223.672.368 1.045.426 0 0-.375-.298-.739-.569 0 0-.25-.251-.569-.596l-.182-.214s.182.776.445.957m.028-.688s.126.164.769.388a2.338 2.338 0 0 0-.655-.627 7.733 7.733 0 0 0-.656-.462l-.24-.105s.448.478.782.806Zm-1.248-2.086c.257.351.552.667.88.942 0 0-.46-.075-.698-.135 0 0 .593.45.836.582 0 0 .364.226.88.599a3.174 3.174 0 0 0-.593-.808c.185.095.388.141.593.134a8.837 8.837 0 0 0-.91-.675s-.709-.584-1.102-.942l-.139-.179c.051.178.138.343.253.482Zm-.866-1.705a.523.523 0 0 0-.197.179c.413.344.874.617 1.366.807a1.974 1.974 0 0 1-.613-.566s-.378-.719-.698-.927l-.18-.12c.072.227.18.44.319.627m-.396-1.091c.085.156.21.281.362.36.284.222.608.38.95.462a6.357 6.357 0 0 1-.978-.895l-.593-.628c.07.242.158.476.267.7m-.375-1.029c.359.337.77.605 1.213.791 0 0-.684-.673-1.257-1.15l-.417-.329c.14.24.293.47.46.688Zm-.56-2.182c.344.303.65.655.907 1.044 0 0-.976-.88-1.701-.775.278.113.537.274.766.477.27.216.518.461.74.733 0 0 .405.465.642.703.292.31.645.544 1.032.687a1.313 1.313 0 0 1-.502-.478s-.417-.552-.79-1.001c0 0 .79.613 1.296.598a1.292 1.292 0 0 1-.433-.213 3.953 3.953 0 0 1-.642-.705 7.595 7.595 0 0 0-.74-.923 3.312 3.312 0 0 0-1.296-.705l-.208-.03c.328.152.637.348.92.584m-8.12-1.63s.153.345.292.688c.127.252.267.497.419.733 0 0 .083.105.35.537a4.141 4.141 0 0 0-.267-.805 9.425 9.425 0 0 0-.656-1.258l-.346-.52c.047.216.117.425.207.625Zm-1.143-4.407c-.09.335-.129.684-.115 1.033-.023.353.035.707.17 1.03.167.267.317.547.447.837 0 0-.058-.972-.14-1.526a4.32 4.32 0 0 1-.084-1.065c.008-.428.036-.855.084-1.279l.055-.426a7.286 7.286 0 0 0-.417 1.419m3.265-1.328.11.162c.13.147.27.282.418.405.103.09.222.157.35.194a.521.521 0 0 0 .32-.015.853.853 0 0 0 .293-.194c.113-.086.208-.198.278-.328.153-.239.307-.51.307-.51a3.18 3.18 0 0 1 .672-.866c.486-.427.723-.463.723-.463a2.6 2.6 0 0 0-.905.284 8.23 8.23 0 0 0-.518.36c-.092.093-.19.18-.293.26a1.435 1.435 0 0 1-.395.313 1.75 1.75 0 0 1-.696.238c-.35.075-.67.105-.67.105m-.01-.047c.231-.075.459-.164.68-.266.276-.153.537-.332.781-.537.304-.26.58-.556.822-.883 0 0-.486.39-.85.64-.362.226-.74.42-1.13.584a2.622 2.622 0 0 1-.977.151.933.933 0 0 1-.488-.136l-.288.477c.177.051.36.076.543.074.258.017.516-.003.769-.06l.129-.031m9.86-3.915c-.181.08-.355.18-.517.299 0 0-.348.213-.935.598-.52.29-1.055.544-1.605.761a.843.843 0 0 0-.395.226s.016.087-.097.251l-.032.045-.023.03s.083.134.612-.134c.308-.145.607-.31.896-.492 0 0 .334-.224.739-.51a7.78 7.78 0 0 0 .71-.552c.211-.179.419-.36.419-.36.08-.046.155-.1.225-.162m-3.329 15.866c-.037-.15-.15-.471-.15-.471-1.032-3.1-1.423-3.644-1.423-3.644a8.857 8.857 0 0 0-1.78-2.227l.839-.03a4.015 4.015 0 0 1 1.564.3c.64.272 1.227.67 1.731 1.175 1.186 1.302 1.453 2.107 1.453 2.107.204.443.328.923.364 1.415l.502.482-.028.852.447.241c-.14.48-.28.573-.28.573.178.16.388.273.614.33.14.09.055.39.055.39.036.454.2.885.47 1.235.27.35.633.603 1.04.724l.623.26c.132-.155.326-.366.326-.366-1.648-1.55-2.095-2.83-2.095-2.83a22.528 22.528 0 0 0-1.42-3.286c.076-.208.165-.41.267-.604l.643-.922s.344-.282.632-1.234c0 0 .28-.614.198-.915 0 0-.018-.119-.296-.321l-.352.337c.134.149.033.334-.05.458a.497.497 0 0 0-.057.34c.044.164.057.335.038.504 0 0-.056.45-.354.45 0 0-.455-.02-.568.18a2.262 2.262 0 0 0-.456.793 8.458 8.458 0 0 1-.307-1.385l-.02-.29v-.021a2.88 2.88 0 0 1 .821-.64c.092-.038.182-.082.269-.132a.873.873 0 0 0 .198-.251 1.92 1.92 0 0 1 .12-.213s.16-.113.368.194l.352-.337a7.58 7.58 0 0 0-.459-.411.315.315 0 0 0-.242-.008.347.347 0 0 0-.185.17c-.204.27-.442.506-.708.703 0 0-.223.128-.474.311l-.119.1a9.47 9.47 0 0 0-.148-1.01 12.09 12.09 0 0 0-.502-1.837s-.294-1.027-.704-1.21a1.293 1.293 0 0 0-.69-.105l.396.388s.312.109.512.814c.213.75.36 1.492.36 1.492a5.835 5.835 0 0 0-.937-.853c.415.594.772 1.233 1.063 1.908a5.204 5.204 0 0 0-.852-.883c.395.655.314.529.314.529a7.72 7.72 0 0 1 .593 1.302c-.35-.4-.728-.77-1.132-1.106l.344.465c.404.616.77 1.26 1.097 1.928-1.174-1.4-1.908-1.95-1.908-1.95a5.185 5.185 0 0 0-1.502-.841c-.885-.354-2.55-.312-2.55-.312l.099-.104a4.25 4.25 0 0 1 .998-.742c.373-.089.76-.089 1.133 0 .935.098 1.334.54 1.334.54-.692-.853-1.933-.825-1.933-.825l.265-.213c1.03-.812 1.599-1.027 1.599-1.027.198-.075.403-.129.61-.162.309-.04.62.029.888.198l-.79-.565c-.313.025-.62.097-.914.213-.343.144-.67.326-.978.544 0 0-.842.46-1.384.7-.39.198-.754.448-1.085.744.007-.486.063-.97.168-1.444.06-.288.174-.559.334-.798l.071-.091v-.827l.072-.377.067-.426.42-.271c.517-.362 2.01-.707 2.01-.707-.572.33-1.438.782-1.438.782a8.032 8.032 0 0 0-1.12.622l-.076.373c.32-.122.644-.213.644-.213.497-.045.593-.28.593-.28a.754.754 0 0 1 .3-.166.717.717 0 0 1 .337-.012l.198-.184c.717-.426 1.031-.586 1.031-.586l1.216-.496c.949-.427 1.996-.964 1.996-.964l1.147-.918.035-.113c.91-1.03 1.864-1.112 1.864-1.112.316-.09.621-.219.91-.384l.197.026.198-.058a.84.84 0 0 0-.028-.407.787.787 0 0 0-.215-.337 1.069 1.069 0 0 1-.354-.264 1.493 1.493 0 0 0-.593-.358c-.334-.14-.7-.165-1.047-.072a3.344 3.344 0 0 0-.809-.137s-.79-.047-1.216.137c-.107.03-.21.075-.308.134a8.47 8.47 0 0 1-.921.616 2.967 2.967 0 0 0-.727.483 5.487 5.487 0 0 1-1.032.392s-1.186.301-2.305.557a5.611 5.611 0 0 1-1.23.226l-1.061-.286.099-.196a1.245 1.245 0 0 0-.056-.196s-.209-.392-.152-.558c.068-.16.162-.304.277-.427 0 0 .138-.104-.016-.33 0 0-.154-.24-.292-.467a.676.676 0 0 0-.406-.255s-.025-.015-.334-.152c0 0-.336-.164-.656-.285a4.107 4.107 0 0 0-.866-.152s-.79-.042-1.213.514c0 0-.309.27-.46 1.34a2.46 2.46 0 0 1-.198.783c-.08.148-.133.311-.155.481l.198-.18c.11-.07.214-.151.306-.246.161-.158.289-.351.374-.567 0 0 .028-.074.265-.797.133-.287.339-.527.593-.695a.862.862 0 0 1 .79-.012s.309.164.546.313l.125.091s-.084-.074-.95.408c-.33.18-.63.425-.879.722a1.965 1.965 0 0 1-.964.729l-.21.053-.166.107c-.024.117-.093.464-.113.618l.358-.181c.228-.35.514-.652.844-.89.42-.307.895-.512 1.396-.602.545-.09.923-.194.923-.194.254-.058.502-.144.739-.258l-.097.104a3.364 3.364 0 0 1-1.298.663c-.29.1-.584.18-.882.243a5.415 5.415 0 0 0-.684.254 7.5 7.5 0 0 0-.884.598l-.395.111a5.53 5.53 0 0 0-.198.874v.134l-.219.213s-.374.427-.672.842c-.241.28-.402.63-.465 1.006-.06.239-.134.473-.223.701 0 0-.364 1.492-.395 2.131 0 0-.07.282.316 1.066 0 0 .113.213.466.765 0 0 .074.04.88 1.193l.42.64c.196.352.415.69.655 1.01.139.253.417.66.417.66.084.175.17.369.252.556l.395-.238-.133-.198a.544.544 0 0 1-.069-.405c.042-.346-.265-.678-.265-.678a9.323 9.323 0 0 0-.753-.963c-.658-.812-.812-1.038-.812-1.038a4.084 4.084 0 0 1-.593-.889 1.328 1.328 0 0 1-.11-.332 7.152 7.152 0 0 1-.238-1.656c.003-.34.04-.679.113-1.01l.11-.66.154-.693a1.33 1.33 0 0 1 .433-.603c.167-.094.307-.233.406-.405l.336-.497a.944.944 0 0 1 .46-.409 1.09 1.09 0 0 0 .395-.467 2.6 2.6 0 0 1 .686-1.023l.18.047.362.3c.1.099.22.171.35.214a1.248 1.248 0 0 1-.166-.48.845.845 0 0 1 .028-.362c.013-.104.395-.285.395-.285l.182.194a.75.75 0 0 0 .395.213.932.932 0 0 1 .49.134c-.223.07-.435.176-.628.315-.406.265-.979.618-.979.618-.698.514-1.047.797-1.047.797a6.664 6.664 0 0 0-.613.65c.949-.71 1.27-.665 1.27-.665.202-.022.401-.067.594-.134.537-.475.711-.6.711-.6.192-.133.39-.254.593-.363.477-.27 1.147.045 1.147.045.28.195.602.304.935.317a3.701 3.701 0 0 1 1.146-.377c.22-.053.444-.094.668-.121a6.56 6.56 0 0 0 .896-.363c.33-.195.675-.356 1.034-.48.711-.166 1.017-.212 1.017-.212a8.055 8.055 0 0 0 1.78-.62l.075-.482c-.08.04-.3.151-.58.273-.289.144-.594.25-.907.315l-.182.045s.396-.239.56-.377c0 0 .25-.165.516-.33.166-.107.352-.174.545-.195 0 0 .265-.047.852-.136 0 0-.405.181-.816.411l-.075.482 1.28-.622a1.58 1.58 0 0 1 .791-.197c.38.064.623.111.623.111.223 0 .443.337.443.337a.937.937 0 0 0 .29.311c.07.045.154.286.154.286l-.132.336-.322-.18c-.334.016-.832 0-.832 0-.226.09-.396.172-.396.172-.571.426-.682.032-.682.032-.486.363-.953.754-1.4 1.172-.294.218-.566.47-.81.752-.488.437-.654.465-.654.465l-.545.273a1.904 1.904 0 0 1-.532.24c-.276.09-.562.136-.85.137-.356 0-.593.013-.593.013a6.324 6.324 0 0 0-1.931.366s-.105.036-.154.062l-.188.062a.998.998 0 0 0-.328.213 1.486 1.486 0 0 0-.137.151 3.184 3.184 0 0 1-.26.377c-.098.107.151-.177.057-.07-.421.467-.955 1.577-.955 1.577-.165.387-.349.764-.551 1.13-.283.458-.611.882-.979 1.263.424-.312.823-.66 1.196-1.04-.113.467-.714 2.018-.714 2.018.192-.177.357-.386.489-.618.336-.573.531-.933.531-.933.103.555.253 1.1.447 1.626a1.459 1.459 0 0 1-.435-.33c.142.564.741 1.084.741 1.084.35.346.672.601.672.601.197.168.38.355.544.559l.12.426c.036.192.02.392-.045.575a4.75 4.75 0 0 1-.223.426c-.34.665-1.309.768-1.309.768a2.185 2.185 0 0 1-.8.07c-.295.04-.594.002-.872-.11a.883.883 0 0 1-.394-.129.96.96 0 0 1-.304-.298 1.47 1.47 0 0 1-.405.407l-.496-.744-.395.224c.158.367.355.835.355.835-.717.574-.767.979-.767.979a3.111 3.111 0 0 0 .34 1.781c.238.64.85.134.85.134.174-.177.51-.942.627-1.155l-.395-.541c-.174.196-.372.426-.372.426l-.18-.464.364-.47c.129-.185.284-.348.46-.48-.017.272-.084.538-.197.783l-.095.228.395.554c.014.427 0 .855-.043 1.28l-.097.87s-.097.363.308.427a.54.54 0 0 1 .293.27.6.6 0 0 0 .18.348l-.166-2.304.21.213c.346.234.73.397 1.132.48.571.09 1.37.166 1.37.166l.077.02h.075l1.156-.011.091-.243 1.415-.039.58.145c-.56-.262-.643-.716-3.827-.9a3.115 3.115 0 0 1-.81-.255 3.66 3.66 0 0 1-.99-1.1l.029.226c-.01.166-.005.332.013.497.03.217.106.423.224.601a1.307 1.307 0 0 1-.472-.358 1.436 1.436 0 0 1-.281-.544 7.549 7.549 0 0 1-.085-1.504l.223.12c.144.056.294.092.447.106.56.013.804 0 .804 0 .623.021 1.73-.36 1.73-.36a1.37 1.37 0 0 0 .646-.565c.154-.258.23-.561.214-.867l.21.3c.266.426.529.902.529.902.546 1.065 1.383 3.701 1.383 3.701l-1.531-.486-.038 1.108c1.253-.213 1.265.625 1.265.625a7.403 7.403 0 0 1-.093 1.958 11.37 11.37 0 0 0-.419-1.939 1 1 0 0 1-.055-.571l.988-.507-2.065-.367c.197.484.474 1.085.474 1.085.158.438.24.904.243 1.375.055 1.304-.374 1.958-.374 1.958l-.306-.934a.97.97 0 0 0 .289-.443l-.261-.426a.722.722 0 0 0 .198-.36l-.297-.763a.342.342 0 0 0 .151-.091.38.38 0 0 0 .092-.158l-.395-.674.221-.573-1.506.262c.207.934.593 2.104.593 2.104.328.858.724 1.684 1.186 2.467l.921-.3c.34-.168.715-.241 1.09-.213l1.021 3.729c.134.454.332.07.467.454.227.654-.267 2.393-.267 2.393-.05.42-.08.844-.09 1.268-.02.622-.011.993-.011.993l1.876.01.116-.302a7.509 7.509 0 0 0-.683-.575l-1.12-.198a3.962 3.962 0 0 1 .143-1.954s.02-1.194 0-1.827a37.184 37.184 0 0 0-.44-4.126l-.028-.24c.369.946.793 1.867 1.27 2.755l.238 2.909.069-2.383c.259.178.503.38.73.604 0 0-.127 1.75.055 2.275a9.84 9.84 0 0 0 1.089 1.627s.14.255.755.586c.246.093.5.163.757.208l.504-.072.154.405-.154.315-3.103.015-.21-.311c-.231.173-.249.203-.235.183l.358.375h3.334l.261-.405c.083-.196-.112-.526-.112-.526l-.198-.392-.558.03c-.405.062-1.721-1.132-1.721-1.132l-.654-1.217c-.113-.317.027-1.084.027-1.084.166-1.279.988-3.623.988-3.623a15.47 15.47 0 0 1 1.33-1.901l-.644-.281-.31.458a24.231 24.231 0 0 0-1.872 3.384 6.723 6.723 0 0 1-1.326-1.822 19.765 19.765 0 0 1-.949-2.244c-.557-1.743-.74-2.376-.74-2.376l-.252-.934m-26.62-11.007c3.02 0 3.82 4.94 3.82 10.443h-7.95c0-5.69 1.527-10.443 4.13-10.443Zm.556 25.6c3.888 0 7.394-1.796 9.478-6.586l-1.186-.674c-2.222 4.156-4.685 5.053-6.768 5.053-4.653 0-6.215-4.867-6.215-9.992v-1.28h13.886c0-7.596-2.882-13.883-9.583-13.883-7.428 0-10.55 7.371-10.55 13.622 0 8.049 3.887 13.737 10.934 13.737m-21.872-.823h11.77v-1.16c-2.258-.114-3.021-.374-3.021-2.397V29.677c0-4.081-2.43-7.747-7.361-7.747-2.637 0-5.311.674-6.735 3.293V12.496h-8.222v1.161c2.117.111 2.188.56 2.188 2.396V44.91c0 2.022-.453 2.282-2.708 2.397v1.16h11.49v-1.16c-2.255-.115-2.743-.375-2.743-2.398V30.206c0-3.107 1.53-6.026 4.445-6.026 2.603 0 3.61 2.32 3.61 4.829V44.91c0 2.022-.453 2.282-2.709 2.397l-.004 1.155ZM24.056 22.001h1.456v-9.505H0v9.509h1.425c.243-5.988 1.736-7.71 5.104-7.71h3.087v30.502c0 2.022-.763 2.284-3.02 2.395v1.279H19.13v-1.28c-2.257-.11-3.02-.372-3.02-2.394V14.295h3.227c3.36 0 4.48 1.722 4.723 7.71m186.913 5.988v12.838c0 3.891-1.945 5.651-4.062 5.651-2.291 0-4.894-2.583-4.894-11.603 0-7.073 2.257-10.705 5.068-10.705 2.047 0 3.716 1.918 3.888 3.82Zm0 20.473H220v-1.159c-2.257-.115-2.987-.375-2.987-2.398V12.497h-9.061v1.161c2.258.111 3.021.373 3.021 2.396v8.607c-.937-1.833-2.916-2.73-5.416-2.73-6.284 0-9.789 7.073-9.789 13.773 0 7.485 3.924 13.175 9.686 13.175 2.846 0 4.546-1.085 5.519-3.48v3.068Zm-26.141 0h10.901v-1.159c-1.702-.115-2.467-.375-2.467-2.398V12.497h-8.747v1.161c2.258.111 2.708.373 2.708 2.396V44.91c0 1.834-.312 2.246-2.026 2.397v1.16h-.369Zm-7.81-14.112v9.77c-.834 1.947-2.882 2.62-3.953 2.62-2.013 0-3.888-1.721-3.888-5.466 0-4.978 2.534-6.998 5.416-6.998.66 0 1.909.038 2.431.074m2.706 14.112h5.032v-1.159c-1.039-.038-1.873-.526-1.873-1.724v-16.43c0-4.866-3.021-7.336-8.642-7.336-2.534 0-6.25.3-7.907.488v7.148h1.528c.198-4.004 2.358-5.878 5.276-5.878 2.014 0 3.89 1.013 3.89 4.38v4.865c-.87-.036-2.396-.026-3.021-.036-5.866-.098-10.871 2.845-10.871 8.87 0 4.94 3.121 7.334 7.531 7.334 2.259 0 5.001-.522 6.523-2.77.069.9.937 2.246 2.534 2.246m-15.871-19.011h1.25v-7.148c-.52-.187-1.734-.262-2.57-.262-3.473 0-5.311 2.095-5.93 3.966v-3.256h-9.031v1.161c2.257.113 2.987.373 2.987 2.396v18.6c0 2.022-.73 2.282-2.987 2.397v1.16h12.057v-1.16c-2.257-.115-3.022-.375-3.022-2.398V31.587c0-3.706 1.977-5.839 4.028-5.839 1.354 0 2.778.675 2.95 3.706h.268Zm-25.654-5.754c3.02 0 3.82 4.94 3.82 10.442h-7.954c0-5.69 1.53-10.442 4.134-10.442Zm.555 25.6c3.888 0 7.395-1.796 9.488-6.587l-1.186-.673c-2.222 4.155-4.687 5.053-6.77 5.053-4.651 0-6.217-4.868-6.217-9.993v-1.278h13.888c0-7.598-2.882-13.884-9.58-13.884-7.429 0-10.554 7.371-10.554 13.621 0 8.05 3.886 13.737 10.935 13.737m-22.704-.822v-1.279c2.256-.11 3.021-.373 3.021-2.395V29.903H107.97v14.896c0 2.022.765 2.284 3.02 2.395v1.279H98.492v-1.279c2.259-.11 2.987-.373 2.987-2.395V16.166c0-2.023-.728-2.246-2.987-2.36v-1.31h12.496v1.31c-2.255.114-3.02.337-3.02 2.36v11.79h11.111v-11.79c0-2.023-.765-2.246-3.021-2.36v-1.31h12.497v1.31c-2.256.114-2.985.337-2.985 2.36v28.63c0 2.023.729 2.285 2.985 2.396v1.279l-12.491.002Z"/></svg>